<svg width="706" height="706" viewBox="0 0 706 706" fill="none" xmlns="http://www.w3.org/2000/svg">
<path d="M130.975 194.147C124.238 189.327 114.832 190.862 110.369 197.841C78.4436 247.762 62.627 306.439 65.2879 365.879C68.1728 430.326 92.6115 491.938 134.687 540.839C176.762 589.74 234.037 623.099 297.331 635.569C360.626 648.038 426.274 638.896 483.753 609.608C541.232 580.32 587.214 532.581 614.327 474.045C641.441 415.508 648.116 349.564 633.284 286.781C618.451 223.999 582.969 168.014 532.525 127.801C486 90.7116 429.232 69.0199 370.079 65.5068C361.81 65.0156 355.039 71.7231 354.979 80.0072L354.452 152.711C354.392 160.995 361.071 167.696 369.323 168.426C405.451 171.62 439.971 185.365 468.503 208.111C500.958 233.983 523.787 270.003 533.33 310.396C542.873 350.789 538.578 393.217 521.134 430.878C503.689 468.54 474.105 499.254 437.124 518.097C400.143 536.941 357.906 542.823 317.184 534.8C276.461 526.777 239.611 505.315 212.541 473.853C185.47 442.39 169.747 402.75 167.891 361.286C166.259 324.834 175.428 288.827 194.079 257.72C198.339 250.615 196.842 241.273 190.105 236.453L130.975 194.147Z" fill="#0C5C8C"/>
<line x1="200.543" y1="459.034" x2="117.834" y2="520.183" stroke="white" stroke-width="4"/>
<line x1="429.917" y1="522.428" x2="459.318" y2="620.996" stroke="white" stroke-width="4"/>
<line x1="537.757" y1="333.396" x2="638.757" y2="321.015" stroke="white" stroke-width="4"/>
</svg>
